<svg width="29" height="41" viewBox="0 0 29 41" fill="none" xmlns="http://www.w3.org/2000/svg">
<path d="M28.469 14.2345C28.469 12.3652 28.1008 10.5142 27.3855 8.78719C26.6701 7.06018 25.6216 5.49098 24.2998 4.16919C22.978 2.84739 21.4088 1.79889 19.6818 1.08354C17.9548 0.368186 16.1038 0 14.2345 0C12.3652 0 10.5142 0.368186 8.78719 1.08354C7.06018 1.79889 5.49098 2.84739 4.16919 4.16919C2.84739 5.49098 1.79889 7.06018 1.08354 8.78719C0.368186 10.5142 -2.78548e-08 12.3652 0 14.2345C0 17.055 0.831702 19.6782 2.24702 21.8906H2.23075L14.2345 40.67L26.2383 21.8906H26.224C27.6899 19.6062 28.4691 16.9488 28.469 14.2345ZM14.2345 20.335C12.6165 20.335 11.0649 19.6923 9.9208 18.5482C8.77673 17.4041 8.134 15.8525 8.134 14.2345C8.134 12.6165 8.77673 11.0649 9.9208 9.9208C11.0649 8.77673 12.6165 8.134 14.2345 8.134C15.8525 8.134 17.4041 8.77673 18.5482 9.9208C19.6923 11.0649 20.335 12.6165 20.335 14.2345C20.335 15.8525 19.6923 17.4041 18.5482 18.5482C17.4041 19.6923 15.8525 20.335 14.2345 20.335Z" fill="#D11242"/>
<circle cx="14.336" cy="14.336" r="10.6759" fill="white"/>
<g clip-path="url(#clip0_31_187)">
<path d="M23.6654 14.5632C23.6654 17.3377 19.3821 19.5877 14.0929 19.5877C8.8038 19.5877 4.52051 17.3377 4.52051 14.5632C4.52051 11.7887 8.8038 9.53882 14.0929 9.53882C19.3821 9.55048 23.6654 11.7887 23.6654 14.5632Z" fill="#D11242"/>
<path d="M23.4842 14.7148C23.4842 17.4893 19.2009 19.7392 13.9118 19.7392C8.62265 19.7392 4.33936 17.4893 4.33936 14.7148C4.35066 11.9403 8.63395 9.69037 13.9231 9.69037C19.2009 9.69037 23.4842 11.9403 23.4842 14.7148Z" fill="#D11242"/>
<path d="M23.6992 14.5632C23.6992 17.396 19.3255 19.6926 13.9233 19.6926C8.52117 19.6926 4.14746 17.396 4.14746 14.5632C4.14746 11.7304 8.52117 9.4339 13.9233 9.4339C19.3255 9.4339 23.6992 11.7304 23.6992 14.5632Z" fill="#D11242"/>
<path d="M10.7704 17.0114H6.8374V16.8598C7.30077 16.8248 7.47029 16.7666 7.47029 16.1837V12.8613C7.47029 12.2667 7.30077 12.2201 6.8374 12.1851V12.0452H10.7025L10.7251 13.1177H10.5443C10.4313 12.4532 10.2505 12.325 9.43676 12.325H8.45353C8.29531 12.325 8.21619 12.325 8.21619 12.5815V14.2485H9.33505C9.97924 14.2485 10.0584 14.0736 10.1375 13.5374H10.307V15.2744H10.1375C10.047 14.6798 9.94534 14.5749 9.33505 14.5633L8.21619 14.5516V16.4168C8.21619 16.7199 8.21619 16.7316 9.30115 16.7316C10.2053 16.7316 10.5782 16.5101 10.8947 15.7523H11.0981L10.7704 17.0114Z" fill="white"/>
<path d="M18.0487 10.9494C17.348 11.031 16.9864 11.0776 16.9864 12.4183V18.4569H16.7942L11.9007 12.1618H11.878V16.6383C11.878 17.8157 12.1154 18.0722 12.9291 18.1072V18.3287H10.3071V18.1072C11.1547 18.0489 11.3921 17.874 11.3921 16.6383V11.5789C10.94 11.0077 10.7592 10.9494 10.3071 10.9494V10.7279H12.2058L16.4665 16.2536H16.4891V12.4183C16.4891 11.1009 16.1726 11.0077 15.4154 10.9494V10.7279H18.0261V10.9494H18.0487Z" fill="white"/>
<path d="M18.6589 14.5633C19.3596 14.5633 19.5857 14.5982 19.8343 14.6798C20.2072 14.7964 20.5689 15.0529 20.5689 15.6591C20.5689 16.6616 19.6874 16.7316 19.2127 16.7316C18.7946 16.7316 18.6589 16.6966 18.6589 16.4285V14.5633ZM17.2236 12.1851C17.8226 12.2201 17.9243 12.3017 17.9243 12.8613V16.1953C17.9243 16.7316 17.8339 16.8598 17.2236 16.8715V17.0114H19.6535C21.2696 17.0114 21.4165 15.9738 21.4165 15.6941C21.4165 14.9013 20.8401 14.5516 20.2073 14.4117V14.4001C20.535 14.3185 21.1792 14.1553 21.1792 13.3159C21.1792 12.1501 19.9021 12.0452 19.2692 12.0452H17.2349V12.1851H17.2236ZM18.6589 12.5465C18.6589 12.4299 18.6702 12.325 18.8172 12.325C18.885 12.325 18.9867 12.3134 19.1449 12.3134C19.6648 12.3134 20.422 12.4532 20.422 13.3509C20.422 14.2485 19.5518 14.2602 19.3483 14.2602L18.6589 14.2718V12.5465Z" fill="white"/>
</g>
<defs>
<clipPath id="clip0_31_187">
<rect width="19.8908" height="10.6084" fill="white" transform="translate(3.97803 9.28235)"/>
</clipPath>
</defs>
</svg>
