<svg width="358" height="63" viewBox="0 0 384 72" fill="none" xmlns="http://www.w3.org/2000/svg">
<g filter="url(#filter0_d_31_148)">
<path d="M189.047 63L79.796 63L13 3.8147e-06L371 3.8147e-06L307.156 63L189.047 63Z" fill="#D11242"/>
<line y1="-1" x2="89.7727" y2="-1" transform="matrix(-0.712401 0.701773 -0.916052 -0.40106 378 0)" stroke="#004990" stroke-width="2"/>
<line y1="-1" x2="92.8583" y2="-1" transform="matrix(-0.734644 -0.678453 0.906067 -0.423134 74.2178 63)" stroke="#004990" stroke-width="2"/>
</g>
<path d="M130.12 38.124L132.316 45H137.068L129.184 20.736H123.532L115.756 45H120.328L122.416 38.124H130.12ZM123.136 34.776L125.008 28.8C125.44 27.36 125.8 25.668 126.16 24.264H126.232C126.592 25.668 126.988 27.324 127.456 28.8L129.364 34.776H123.136ZM144.511 45V36.324C144.511 32.328 144.475 29.124 144.295 25.992L144.403 25.956C145.591 28.692 147.211 31.68 148.759 34.344L155.095 45H159.667V20.736H155.563V29.196C155.563 32.904 155.671 36.036 155.959 39.276H155.887C154.771 36.648 153.367 33.84 151.747 31.14L145.483 20.736H140.443V45H144.511ZM163.691 43.848C165.023 44.64 167.687 45.36 170.243 45.36C176.507 45.36 179.459 41.976 179.459 38.088C179.459 34.596 177.407 32.472 173.195 30.888C169.955 29.628 168.551 28.764 168.551 26.892C168.551 25.488 169.775 23.976 172.583 23.976C174.851 23.976 176.543 24.66 177.407 25.128L178.487 21.564C177.227 20.916 175.283 20.34 172.655 20.34C167.399 20.34 164.087 23.364 164.087 27.324C164.087 30.816 166.643 32.94 170.639 34.38C173.735 35.496 174.959 36.576 174.959 38.412C174.959 40.392 173.375 41.724 170.531 41.724C168.263 41.724 166.103 41.004 164.663 40.176L163.691 43.848ZM192.151 45L194.959 33.588C195.679 30.816 196.147 28.476 196.579 25.884H196.651C196.939 28.512 197.371 30.816 197.983 33.588L200.503 45H205.255L211.771 20.736H207.271L204.751 31.716C204.103 34.668 203.527 37.44 203.095 40.104H203.023C202.663 37.476 202.159 34.776 201.547 31.896L199.135 20.736H194.491L191.863 31.716C191.179 34.776 190.495 37.656 190.099 40.212H190.027C189.631 37.8 189.055 34.704 188.443 31.752L186.139 20.736H181.423L187.363 45H192.151ZM228.3 30.636H219.156V24.372H228.84V20.736H214.728V45H229.38V41.364H219.156V34.236H228.3V30.636ZM233.255 45H237.647V35.028H239.879C242.399 35.1 243.551 36.108 244.235 39.276C244.919 42.3 245.495 44.28 245.855 45H250.427C249.923 44.064 249.275 41.256 248.519 38.232C247.907 35.892 246.863 34.2 245.135 33.552V33.444C247.403 32.616 249.527 30.492 249.527 27.36C249.527 25.308 248.771 23.616 247.439 22.5C245.819 21.132 243.443 20.556 239.951 20.556C237.395 20.556 234.911 20.772 233.255 21.06V45ZM237.647 24.12C238.079 24.012 238.979 23.904 240.383 23.904C243.263 23.904 245.135 25.128 245.135 27.792C245.135 30.204 243.263 31.788 240.275 31.788H237.647V24.12ZM252.671 43.848C254.003 44.64 256.667 45.36 259.223 45.36C265.487 45.36 268.439 41.976 268.439 38.088C268.439 34.596 266.387 32.472 262.175 30.888C258.935 29.628 257.531 28.764 257.531 26.892C257.531 25.488 258.755 23.976 261.563 23.976C263.831 23.976 265.523 24.66 266.387 25.128L267.467 21.564C266.207 20.916 264.263 20.34 261.635 20.34C256.379 20.34 253.067 23.364 253.067 27.324C253.067 30.816 255.623 32.94 259.619 34.38C262.715 35.496 263.939 36.576 263.939 38.412C263.939 40.392 262.355 41.724 259.511 41.724C257.243 41.724 255.083 41.004 253.643 40.176L252.671 43.848Z" fill="white"/>
<defs>
<filter id="filter0_d_31_148" x="0.187988" y="0" width="383.644" height="71.8463" filterUnits="userSpaceOnUse" color-interpolation-filters="sRGB">
<feFlood flood-opacity="0" result="BackgroundImageFix"/>
<feColorMatrix in="SourceAlpha" type="matrix" values="0 0 0 0 0 0 0 0 0 0 0 0 0 0 0 0 0 0 127 0" result="hardAlpha"/>
<feOffset dy="4"/>
<feGaussianBlur stdDeviation="2"/>
<feComposite in2="hardAlpha" operator="out"/>
<feColorMatrix type="matrix" values="0 0 0 0 0 0 0 0 0 0 0 0 0 0 0 0 0 0 0.08 0"/>
<feBlend mode="normal" in2="BackgroundImageFix" result="effect1_dropShadow_31_148"/>
<feBlend mode="normal" in="SourceGraphic" in2="effect1_dropShadow_31_148" result="shape"/>
</filter>
</defs>
</svg>
