<svg width="24" height="24" viewBox="0 0 24 24" fill="none" xmlns="http://www.w3.org/2000/svg">
<path d="M21.0984 8.8742L12.6984 17.2992C12.5984 17.3992 12.4901 17.4702 12.3734 17.5122C12.2568 17.5542 12.1318 17.5749 11.9984 17.5742C11.8651 17.5742 11.7401 17.5535 11.6234 17.5122C11.5068 17.4709 11.3984 17.3999 11.2984 17.2992L2.87344 8.8742C2.6401 8.64087 2.52344 8.3492 2.52344 7.9992C2.52344 7.6492 2.64844 7.3492 2.89844 7.0992C3.14844 6.8492 3.4401 6.7242 3.77344 6.7242C4.10677 6.7242 4.39844 6.8492 4.64844 7.0992L11.9984 14.4492L19.3484 7.0992C19.5818 6.86587 19.8694 6.7492 20.2114 6.7492C20.5534 6.7492 20.8491 6.8742 21.0984 7.1242C21.3484 7.3742 21.4734 7.66587 21.4734 7.9992C21.4734 8.33254 21.3484 8.6242 21.0984 8.8742Z" fill="#004990"/>
</svg>