<svg width="190" height="96" viewBox="0 0 194 100" fill="none" xmlns="http://www.w3.org/2000/svg">
<path d="M191.429 49.7802C191.429 75.9341 149.78 97.1429 98.3518 97.1429C46.9233 97.1429 5.2749 75.9341 5.2749 49.7802C5.2749 23.6264 46.9233 2.41758 98.3518 2.41758C149.78 2.52747 191.429 23.6264 191.429 49.7802Z" fill="#D11242"/>
<path d="M189.67 51.2088C189.67 77.3626 148.022 98.5714 96.5935 98.5714C45.165 98.5714 3.5166 77.3626 3.5166 51.2088C3.62649 25.0549 45.2748 3.84615 96.7034 3.84615C148.022 3.84615 189.67 25.0549 189.67 51.2088Z" fill="#D11242"/>
<path d="M191.758 49.7802C191.758 76.4835 149.231 98.1319 96.7034 98.1319C44.1759 98.1319 1.64844 76.4835 1.64844 49.7802C1.64844 23.0769 44.1759 1.42857 96.7034 1.42857C149.231 1.42857 191.758 23.0769 191.758 49.7802Z" fill="#D11242"/>
<path d="M191.758 49.7802C191.758 76.4835 149.231 98.1319 96.7034 98.1319C44.1759 98.1319 1.64844 76.4835 1.64844 49.7802C1.64844 23.0769 44.1759 1.42857 96.7034 1.42857C149.231 1.42857 191.758 23.0769 191.758 49.7802Z" stroke="white" stroke-width="2.443"/>
<path d="M66.044 72.8571H27.8022V71.4286C32.3077 71.0989 33.9561 70.5494 33.9561 65.0549V33.7363C33.9561 28.1319 32.3077 27.6923 27.8022 27.3626V26.044H65.3847L65.6044 36.1538H63.8462C62.7473 29.8901 60.9891 28.6813 53.077 28.6813H43.5165C41.9781 28.6813 41.2088 28.6813 41.2088 31.0989V46.8132H52.088C58.3517 46.8132 59.1209 45.1648 59.8902 40.1099H61.5385V56.4835H59.8902C59.011 50.8791 58.022 49.8901 52.088 49.7802L41.2088 49.6703V67.2527C41.2088 70.1099 41.2088 70.2198 51.7583 70.2198C60.5495 70.2198 64.1759 68.1319 67.2528 60.989H69.2308L66.044 72.8571Z" fill="white"/>
<path d="M136.813 15.7143C130 16.4835 126.484 16.9231 126.484 29.5604V86.4835H124.616L77.0331 27.1429H76.8133V69.3407C76.8133 80.4396 79.121 82.8571 87.0331 83.1868V85.2747H61.5386V83.1868C69.7803 82.6374 72.088 80.989 72.088 69.3407V21.6484C67.6924 16.2637 65.9342 15.7143 61.5386 15.7143V13.6264H80.0001L121.429 65.7143H121.648V29.5604C121.648 17.1429 118.572 16.2637 111.209 15.7143V13.6264H136.594V15.7143H136.813Z" fill="white"/>
<path d="M142.747 49.7802C149.56 49.7802 151.758 50.1099 154.176 50.8791C157.802 51.978 161.318 54.3956 161.318 60.1099C161.318 69.5604 152.747 70.2198 148.132 70.2198C144.066 70.2198 142.747 69.8901 142.747 67.3626V49.7802ZM128.791 27.3626C134.615 27.6923 135.604 28.4615 135.604 33.7363V65.1648C135.604 70.2198 134.725 71.4286 128.791 71.5385V72.8571H152.417C168.132 72.8571 169.56 63.0769 169.56 60.4396C169.56 52.967 163.956 49.6703 157.802 48.3516V48.2418C160.989 47.4725 167.253 45.9341 167.253 38.022C167.253 27.033 154.835 26.044 148.681 26.044H128.901V27.3626H128.791ZM142.747 30.7692C142.747 29.6703 142.857 28.6813 144.286 28.6813C144.945 28.6813 145.934 28.5714 147.472 28.5714C152.527 28.5714 159.89 29.8901 159.89 38.3516C159.89 46.8132 151.428 46.9231 149.45 46.9231L142.747 47.033V30.7692Z" fill="white"/>
</svg>
