<svg width="342" height="46" viewBox="0 0 342 46" fill="none" xmlns="http://www.w3.org/2000/svg">
<g clip-path="url(#clip0_31_7)">
<path fill-rule="evenodd" clip-rule="evenodd" d="M110.103 32.1132H93.5283V31.5212C95.5262 31.3732 96.1921 31.1513 96.1921 28.7835V15.0947C96.1921 12.6529 95.4522 12.5049 93.5283 12.3569V11.765H109.807L109.881 16.1306H109.141C108.697 13.3928 107.883 12.8749 104.479 12.8749H100.336C99.6698 12.8749 99.2998 12.8749 99.2998 13.9108V20.7182H104.035C106.773 20.7182 107.069 19.9782 107.439 17.7584H108.179V24.8618H107.439C107.069 22.42 106.625 21.9761 104.035 21.9761L99.2998 21.9021V29.5234C99.2998 30.7813 99.2998 30.7813 103.887 30.7813C107.735 30.7813 109.289 29.8934 110.621 26.7857H111.509L110.103 32.1132Z" fill="white"/>
<path fill-rule="evenodd" clip-rule="evenodd" d="M112.989 36.1828C112.989 37.5147 112.841 38.1807 110.843 38.3286V38.8466H118.242V38.3286C116.022 38.3286 115.578 37.9587 115.578 36.0348V31.0773C116.614 32.0392 117.428 32.4092 118.686 32.4092C122.978 32.4092 125.124 28.1175 125.124 24.5658C125.124 20.4962 122.756 17.9804 120.092 17.9804C117.724 17.9804 116.318 19.4603 115.652 20.3482L115.578 20.2742V18.0544L115.43 17.9804C113.951 18.5724 112.471 19.0903 110.991 19.5343V20.0522H111.879C112.989 20.0522 113.063 20.5702 113.063 21.8281L112.989 36.1828ZM115.578 21.8281C115.726 20.6442 117.502 19.8303 118.612 19.8303C122.386 19.8303 122.534 24.7878 122.534 25.5278C122.534 30.8553 119.796 31.4472 118.76 31.4472C117.058 31.4472 115.652 30.1154 115.652 29.4494V21.8281H115.578Z" fill="white"/>
<path fill-rule="evenodd" clip-rule="evenodd" d="M139.109 32.1132H132.597V31.6692C134.077 31.5212 134.669 31.3733 134.669 29.0055V22.938C134.669 20.8662 134.003 19.6823 132.301 19.6823C131.413 19.6823 130.229 20.1262 128.971 21.6061V29.0055C128.971 31.3733 129.563 31.5212 131.043 31.6692V32.1132H124.384V31.6692C126.012 31.4472 126.382 31.2253 126.382 29.0055V14.5027C126.382 13.6148 126.382 12.9489 125.05 12.9489H124.458V12.4309C125.864 12.0609 127.344 11.617 128.823 11.099L128.971 11.173V20.4962H129.045C130.155 18.9423 131.635 17.9804 133.485 17.9804C137.259 17.9804 137.259 21.6061 137.259 22.864V29.0055C137.259 31.2253 137.555 31.3733 139.109 31.6692V32.1132Z" fill="white"/>
<path fill-rule="evenodd" clip-rule="evenodd" d="M141.255 21.8281C141.255 19.9782 140.663 19.9782 140.145 19.9782C139.701 19.9782 139.405 20.0522 139.109 20.1262V19.6083C140.589 19.0903 142.142 18.5724 143.622 17.9804L143.77 18.0544V20.7922H143.844C145.25 18.5724 146.36 17.9804 147.47 17.9804C148.506 17.9804 149.098 18.6464 149.098 19.6083C149.098 20.3482 148.654 20.9402 147.914 20.9402C146.804 20.9402 146.508 19.8303 145.768 19.8303C145.028 19.8303 143.696 21.3841 143.696 22.346V29.3014C143.696 31.4472 144.732 31.5212 146.286 31.5952V32.0392H138.887V31.5952C140.589 31.2993 141.033 31.2253 141.033 29.4494V21.8281" fill="white"/>
<path fill-rule="evenodd" clip-rule="evenodd" d="M161.455 30.1154C161.085 30.4113 160.715 30.7073 160.049 30.7073C159.161 30.7073 159.161 29.8194 159.161 28.9315V22.938C159.161 21.0882 159.161 17.9804 154.573 17.9804C151.022 17.9804 149.542 20.2002 149.542 21.3841C149.542 21.9021 149.912 22.716 150.874 22.716C151.687 22.716 152.279 22.0501 152.279 21.3841C152.279 21.0882 152.131 20.6442 152.131 20.2002C152.131 19.2383 153.315 18.7204 154.277 18.7204C155.165 18.7204 156.645 19.0903 156.645 21.3101V23.16C151.613 25.1578 148.95 26.1937 148.95 29.2274C148.95 31.2993 150.578 32.4092 152.205 32.4092C153.907 32.4092 155.535 31.1513 156.645 30.1894C156.793 32.4092 158.051 32.4092 158.643 32.4092C159.161 32.4092 160.049 32.4092 161.381 30.8553V30.1154H161.455ZM156.719 28.3395C156.719 29.2274 156.645 29.5974 155.683 30.1154C155.387 30.2633 154.425 30.6333 153.759 30.6333C152.649 30.6333 151.761 29.6714 151.761 28.2655V28.1915C151.761 27.1556 152.131 25.4538 156.719 23.8999V28.3395Z" fill="white"/>
<path fill-rule="evenodd" clip-rule="evenodd" d="M167.522 19.2383H164.415V28.0435C164.415 29.0055 164.415 30.7813 165.969 30.7813C166.931 30.7813 167.522 30.1154 167.818 29.6714L168.188 30.0414C167.448 31.3732 166.043 32.4092 164.563 32.4092C163.009 32.4092 161.751 31.5952 161.751 28.4875V19.2383H160.123C160.049 19.2383 159.975 19.0903 159.975 19.0163C159.975 18.6464 160.641 18.4984 161.307 17.7584C162.491 16.5745 162.935 15.9086 164.045 14.2807C164.267 14.2807 164.267 14.4287 164.267 14.6507V18.2024H167.374V19.2383" fill="white"/>
<path fill-rule="evenodd" clip-rule="evenodd" d="M179.953 30.1154C179.583 30.4113 179.213 30.7073 178.547 30.7073C177.659 30.7073 177.659 29.8194 177.659 28.9315V22.938C177.659 21.0882 177.659 17.9804 173.072 17.9804C169.52 17.9804 168.04 20.2002 168.04 21.3841C168.04 21.9021 168.41 22.716 169.372 22.716C170.186 22.716 170.778 22.0501 170.778 21.3841C170.778 21.0882 170.63 20.6442 170.63 20.2002C170.63 19.2383 171.814 18.7204 172.776 18.7204C173.664 18.7204 175.144 19.0903 175.144 21.3101V23.16C170.112 25.1578 167.448 26.1937 167.448 29.2274C167.448 31.2993 169.076 32.4092 170.704 32.4092C172.406 32.4092 174.034 31.1513 175.144 30.1894C175.292 32.4092 176.549 32.4092 177.141 32.4092C177.659 32.4092 178.547 32.4092 179.879 30.8553V30.1154H179.953ZM175.144 28.3395C175.144 29.2274 175.07 29.5974 174.108 30.1154C173.812 30.2633 172.85 30.6333 172.184 30.6333C171.074 30.6333 170.186 29.6714 170.186 28.2655V28.1915C170.186 27.1556 170.556 25.4538 175.144 23.8999V28.3395Z" fill="white"/>
<path fill-rule="evenodd" clip-rule="evenodd" d="M206.887 12.3569C204.963 12.5789 204.001 12.7269 204.001 16.2786V32.4832H203.483L190.017 15.6126H189.943V27.5996C189.943 30.7813 190.608 31.4472 192.828 31.5212V32.1132H185.651V31.5212C188.019 31.3732 188.611 30.9293 188.611 27.5996V14.0588C187.353 12.5049 186.835 12.3569 185.651 12.3569V11.765H190.904L202.669 26.5637H202.743V16.2786C202.743 12.7269 201.856 12.5049 199.784 12.3569V11.765H206.961L206.887 12.3569Z" fill="white"/>
<path fill-rule="evenodd" clip-rule="evenodd" d="M217.838 30.1154C217.468 30.4113 217.098 30.7073 216.432 30.7073C215.544 30.7073 215.544 29.8194 215.544 28.9315V22.938C215.544 21.0882 215.544 17.9804 210.957 17.9804C207.405 17.9804 205.925 20.2002 205.925 21.3841C205.925 21.9021 206.295 22.716 207.257 22.716C208.071 22.716 208.663 22.0501 208.663 21.3841C208.663 21.0882 208.515 20.6442 208.515 20.2002C208.515 19.2383 209.699 18.7204 210.661 18.7204C211.549 18.7204 213.028 19.0903 213.028 21.3101V23.16C207.997 25.1578 205.333 26.1937 205.333 29.2274C205.333 31.2993 206.961 32.4092 208.589 32.4092C210.291 32.4092 211.918 31.1513 213.028 30.1894C213.176 32.4092 214.434 32.4092 215.026 32.4092C215.544 32.4092 216.432 32.4092 217.764 30.8553V30.1154H217.838ZM213.102 28.3395C213.102 29.2274 213.028 29.5974 212.066 30.1154C211.77 30.2633 210.809 30.6333 210.143 30.6333C209.033 30.6333 208.145 29.6714 208.145 28.2655V28.1915C208.145 27.1556 208.515 25.4538 213.102 23.8999V28.3395Z" fill="white"/>
<path fill-rule="evenodd" clip-rule="evenodd" d="M224.498 19.2383H221.39V28.0435C221.39 29.0055 221.39 30.7813 222.944 30.7813C223.906 30.7813 224.498 30.1154 224.794 29.6714L225.164 30.0414C224.424 31.3732 223.018 32.4092 221.538 32.4092C219.984 32.4092 218.726 31.5952 218.726 28.4875V19.2383H217.098C217.024 19.2383 216.95 19.0903 216.95 19.0163C216.95 18.6464 217.616 18.4984 218.282 17.7584C219.466 16.5745 219.91 15.9086 221.02 14.2807C221.242 14.2807 221.242 14.4287 221.242 14.6507V18.2024H224.35V19.2383" fill="white"/>
<path fill-rule="evenodd" clip-rule="evenodd" d="M224.498 31.6692C226.421 31.5952 226.939 31.3732 226.939 29.0055V21.9021C226.939 20.0522 226.347 20.0522 225.829 20.0522C225.385 20.0522 225.016 20.1262 224.572 20.2002V19.7563C226.199 19.2383 227.753 18.6464 229.307 18.0544L229.455 18.1284V29.0794C229.455 31.0773 229.603 31.6692 231.749 31.7432V32.1872H224.498V31.6692Z" fill="white"/>
<path fill-rule="evenodd" clip-rule="evenodd" d="M237.595 17.9804C233.451 17.9804 230.935 21.3101 230.935 25.0838C230.935 29.2274 233.673 32.4092 237.669 32.4092C242.33 32.4092 244.476 28.1175 244.476 25.0838C244.476 20.6442 241.59 17.9804 237.595 17.9804ZM238.112 31.5952C234.413 31.5952 233.747 25.8977 233.747 23.6779C233.747 20.4962 235.449 18.8683 237.373 18.8683C240.184 18.8683 241.738 22.1981 241.738 26.0457C241.738 30.4113 239.666 31.5952 238.112 31.5952Z" fill="white"/>
<path fill-rule="evenodd" clip-rule="evenodd" d="M246.03 21.7541C246.03 19.8303 245.438 19.7563 244.92 19.7563C244.476 19.7563 244.18 19.8303 244.032 19.9043V19.3863C245.438 19.0163 246.844 18.4984 248.25 17.9804L248.472 18.0544V20.4962C249.952 19.0903 251.136 17.9804 252.985 17.9804C254.391 17.9804 256.611 18.7944 256.611 22.568V29.5974C256.611 31.0773 256.981 31.5212 258.461 31.5952V32.0392H252.098V31.5952C253.207 31.5212 254.021 31.3732 254.021 29.0055V22.568C254.021 20.7182 253.503 19.6083 251.654 19.6083C250.766 19.6083 249.804 20.2002 248.62 21.3841V30.0414C248.62 31.0773 249.064 31.5212 250.618 31.6692V32.1132H244.106V31.6692C245.512 31.5952 246.03 31.1513 246.03 29.3754V21.7541Z" fill="white"/>
<path fill-rule="evenodd" clip-rule="evenodd" d="M270.596 30.1154C270.226 30.4113 269.856 30.7073 269.19 30.7073C268.302 30.7073 268.302 29.8194 268.302 28.9315V22.938C268.302 21.0882 268.302 17.9804 263.714 17.9804C260.163 17.9804 258.683 20.2002 258.683 21.3841C258.683 21.9021 259.053 22.716 260.015 22.716C260.829 22.716 261.421 22.0501 261.421 21.3841C261.421 21.0882 261.273 20.6442 261.273 20.2002C261.273 19.2383 262.456 18.7204 263.418 18.7204C264.306 18.7204 265.786 19.0903 265.786 21.3101V23.16C260.755 25.1578 258.091 26.1937 258.091 29.2274C258.091 31.2993 259.719 32.4092 261.347 32.4092C263.048 32.4092 264.676 31.1513 265.786 30.1894C265.934 32.4092 267.192 32.4092 267.784 32.4092C268.302 32.4092 269.19 32.4092 270.522 30.8553V30.1154H270.596ZM265.86 28.3395C265.86 29.2274 265.786 29.5974 264.824 30.1154C264.528 30.2633 263.566 30.6333 262.9 30.6333C261.791 30.6333 260.903 29.6714 260.903 28.2655V28.1915C260.903 27.1556 261.273 25.4538 265.86 23.8999V28.3395Z" fill="white"/>
<path fill-rule="evenodd" clip-rule="evenodd" d="M269.486 31.6692C271.262 31.5212 271.854 31.1513 271.854 29.4494V14.7987C271.854 13.3928 271.706 12.9489 270.448 12.9489C270.078 12.9489 269.782 12.9489 269.412 13.0229V12.5049C271.04 12.1349 272.668 11.691 274.296 11.173L274.444 11.247V29.5974C274.444 31.3732 274.962 31.5952 276.738 31.7432V32.1872H269.486V31.6692Z" fill="white"/>
<path fill-rule="evenodd" clip-rule="evenodd" d="M289.168 13.8368C289.168 13.3928 289.242 12.9489 289.834 12.9489H291.24C293.386 12.9489 296.642 13.5408 296.642 17.1665C296.642 20.7922 293.016 20.8662 292.128 20.8662H289.242L289.168 13.8368ZM283.101 12.3569C285.617 12.5049 286.061 12.8749 286.061 15.0947V28.7835C286.061 31.0033 285.691 31.5212 283.101 31.5212V32.1132H293.312C300.119 32.1132 300.711 27.8956 300.711 26.7117C300.711 23.4559 298.27 21.9761 295.606 21.4581V21.3841C297.012 21.0142 299.675 20.3482 299.675 16.9445C299.675 12.2089 294.274 11.765 291.61 11.765H283.027V12.3569H283.101ZM289.168 22.1241C292.128 22.1241 293.09 22.272 294.126 22.568C295.754 23.086 297.234 24.0479 297.234 26.5637C297.234 30.7073 293.534 30.9293 291.462 30.9293C289.686 30.9293 289.094 30.7813 289.094 29.6714L289.168 22.1241Z" fill="white"/>
<path fill-rule="evenodd" clip-rule="evenodd" d="M314.178 30.1154C313.808 30.4113 313.438 30.7073 312.772 30.7073C311.885 30.7073 311.884 29.8194 311.884 28.9315V22.938C311.884 21.0882 311.884 17.9804 307.297 17.9804C303.745 17.9804 302.265 20.2002 302.265 21.3841C302.265 21.9021 302.635 22.716 303.597 22.716C304.411 22.716 305.003 22.0501 305.003 21.3841C305.003 21.0882 304.855 20.6442 304.855 20.2002C304.855 19.2383 306.039 18.7204 307.001 18.7204C307.889 18.7204 309.369 19.0903 309.369 21.3101V23.16C304.337 25.1578 301.673 26.1937 301.673 29.2274C301.673 31.2993 303.301 32.4092 304.929 32.4092C306.631 32.4092 308.259 31.1513 309.369 30.1894C309.517 32.4092 310.775 32.4092 311.367 32.4092C311.884 32.4092 312.772 32.4092 314.104 30.8553V30.1154H314.178ZM309.369 28.3395C309.369 29.2274 309.295 29.5974 308.333 30.1154C308.037 30.2633 307.075 30.6333 306.409 30.6333C305.299 30.6333 304.411 29.6714 304.411 28.2655V28.1915C304.411 27.1556 304.781 25.4538 309.369 23.8999V28.3395Z" fill="white"/>
<path fill-rule="evenodd" clip-rule="evenodd" d="M315.436 21.7541C315.436 19.8303 314.844 19.7563 314.326 19.7563C313.882 19.7563 313.586 19.8303 313.438 19.9043V19.3863C314.844 19.0163 316.25 18.4984 317.656 17.9804L317.878 18.0544V20.4962C319.358 19.0903 320.542 17.9804 322.392 17.9804C323.798 17.9804 325.943 18.7944 325.943 22.568V29.5974C325.943 31.0773 326.313 31.5212 327.793 31.5952V32.0392H321.43V31.5952C322.54 31.5212 323.354 31.3732 323.354 29.0055V22.568C323.354 20.7182 322.836 19.6083 320.986 19.6083C320.098 19.6083 319.136 20.2002 317.952 21.3841V30.0414C317.952 31.0773 318.396 31.5212 319.95 31.6692V32.1132H313.438V31.6692C314.844 31.5952 315.362 31.1513 315.362 29.3754V21.7541" fill="white"/>
<path fill-rule="evenodd" clip-rule="evenodd" d="M326.683 31.6692C328.755 31.2993 328.977 31.2993 328.977 29.5974V14.7987C328.977 13.3928 328.829 12.9489 327.571 12.9489C327.201 12.9489 326.905 12.9489 326.683 13.0229V12.5049C328.163 12.1349 329.791 11.691 331.419 11.173L331.567 11.247V24.0479L331.641 24.1219C332.751 23.16 334.526 21.4581 335.784 20.4222C336.228 19.9782 336.524 19.6823 336.524 19.3863C336.524 19.0163 336.302 18.7944 334.97 18.7944V18.3504H341.26V18.7944C339.632 18.7944 338.744 18.7944 334.6 22.642L333.713 23.4559L338.374 29.4494C339.928 31.4472 341.112 31.6692 342 31.6692V32.1132H335.34V31.6692H335.932C336.154 31.6692 336.598 31.5952 336.598 31.1513C336.598 30.9293 336.302 30.6333 335.932 30.1154L331.715 24.4179H331.641V29.9674C331.641 31.2253 332.307 31.4472 333.343 31.5212H333.935V31.9652H326.757L326.683 31.6692Z" fill="white"/>
<path fill-rule="evenodd" clip-rule="evenodd" d="M229.529 14.1328C229.529 14.9467 228.863 15.6126 228.049 15.6126C227.235 15.6126 226.569 14.9467 226.569 14.1328C226.569 13.3188 227.235 12.6529 228.049 12.6529C228.863 12.6529 229.529 13.3188 229.529 14.1328Z" fill="white"/>
<path fill-rule="evenodd" clip-rule="evenodd" d="M86.795 22.79C86.795 34.629 67.9265 44.1741 44.6924 44.1741C21.4583 44.1741 2.58984 34.555 2.58984 22.79C2.58984 10.951 21.4583 1.40588 44.6924 1.40588C68.0005 1.40588 86.795 10.951 86.795 22.79Z" fill="#BF1E40"/>
<path fill-rule="evenodd" clip-rule="evenodd" d="M86.0547 23.4559C86.0547 35.2949 67.1863 44.8401 43.9522 44.8401C20.7181 44.8401 1.84961 35.2209 1.84961 23.4559C1.84961 11.691 20.7181 1.99783 43.9522 1.99783C67.1863 1.99783 86.0547 11.617 86.0547 23.4559Z" fill="#BF1E40"/>
<path fill-rule="evenodd" clip-rule="evenodd" d="M87.0166 22.79C87.0166 34.8509 67.7782 44.6921 43.9522 44.6921C20.2001 44.6921 0.887695 34.9249 0.887695 22.79C0.887695 10.6551 20.1261 0.887924 43.9522 0.887924C67.7042 0.887924 87.0166 10.7291 87.0166 22.79Z" fill="#D21242"/>
<path d="M87.0166 22.79C87.0166 34.8509 67.7782 44.6921 43.9522 44.6921C20.2001 44.6921 0.887695 34.9249 0.887695 22.79C0.887695 10.6551 20.1261 0.887924 43.9522 0.887924C67.7042 0.887924 87.0166 10.7291 87.0166 22.79Z" stroke="#FFFFFE" stroke-width="2.443"/>
<path fill-rule="evenodd" clip-rule="evenodd" d="M30.0414 33.2231H12.8008V32.5571C14.8726 32.4092 15.6126 32.1132 15.6126 29.6714V15.5386C15.6126 13.0229 14.8726 12.8009 12.8008 12.6529V12.0609H29.8194L29.8934 16.6485H29.0794C28.6355 13.8368 27.7476 13.3188 24.1958 13.3188H19.9042C19.2383 13.3188 18.8683 13.3188 18.8683 14.4287V21.4581H23.8259C26.6376 21.4581 27.0076 20.7182 27.3776 18.4244H28.1175V25.8237H27.3776C27.0076 23.234 26.4897 22.79 23.8259 22.79L18.8683 22.716V30.6333C18.8683 31.9652 18.8683 31.9652 23.6039 31.9652C27.5996 31.9652 29.2274 31.0033 30.6333 27.7476H31.5212L30.0414 33.2231Z" fill="#FFFFFE"/>
<path fill-rule="evenodd" clip-rule="evenodd" d="M62.0812 7.39935C58.9734 7.76932 57.4195 7.91731 57.4195 13.6888V39.4385H56.6056L35.0734 12.5789H34.9994V31.6692C34.9994 36.7008 36.0353 37.8107 39.587 37.9587V38.9206H28.0439V37.9587C31.7436 37.7367 32.7796 36.9968 32.7796 31.6692V10.0631C30.7817 7.62134 29.9678 7.39935 28.0439 7.39935V6.43744H36.4053L55.1997 29.9674H55.2737V13.6148C55.2737 7.9913 53.8678 7.62134 50.5381 7.32536V6.43744H62.0812V7.39935Z" fill="#FFFFFE"/>
<path fill-rule="evenodd" clip-rule="evenodd" d="M64.8188 14.2068C64.8188 13.7628 64.8928 13.2448 65.5587 13.2448H66.9646C69.2584 13.2448 72.5881 13.8368 72.5881 17.6845C72.5881 21.4581 68.8145 21.5321 67.8525 21.5321H64.8188V14.2068ZM58.5293 12.6529C61.1191 12.8009 61.637 13.1708 61.637 15.5386V29.7454C61.637 32.0392 61.2671 32.5571 58.5293 32.6311V33.2231H69.1844C76.2878 33.2231 76.9538 28.7835 76.9538 27.5996C76.9538 24.2699 74.364 22.716 71.6262 22.1241V22.0501C73.0321 21.6801 75.9179 21.0142 75.9179 17.4625C75.9179 12.5049 70.2943 12.0609 67.5566 12.0609H58.5293C58.5293 12.0609 58.5293 12.6529 58.5293 12.6529ZM64.8188 22.79C67.9265 22.79 68.8884 22.938 69.9984 23.234C71.6262 23.7519 73.2541 24.7878 73.2541 27.4516C73.2541 31.7432 69.4064 32.0392 67.2606 32.0392C65.4107 32.0392 64.8188 31.8912 64.8188 30.7073V22.79Z" fill="#FFFFFE"/>
</g>
<defs>
<clipPath id="clip0_31_7">
<rect width="342" height="45.58" fill="white"/>
</clipPath>
</defs>
</svg>
