<svg width="21" height="21" viewBox="0 0 21 21" fill="none" xmlns="http://www.w3.org/2000/svg">
<path d="M15.5002 12.75H4.50016L0.833496 16.4167V1.75004C0.833496 1.50693 0.930073 1.27377 1.10198 1.10186C1.27389 0.929951 1.50705 0.833374 1.75016 0.833374H15.5002C15.7433 0.833374 15.9764 0.929951 16.1483 1.10186C16.3203 1.27377 16.4168 1.50693 16.4168 1.75004V11.8334C16.4168 12.0765 16.3203 12.3096 16.1483 12.4816C15.9764 12.6535 15.7433 12.75 15.5002 12.75ZM20.0835 7.25004V20.0834L16.4168 16.4167H6.3335C6.09038 16.4167 5.85722 16.3201 5.68532 16.1482C5.51341 15.9763 5.41683 15.7432 5.41683 15.5V14.5834H18.2502V6.33337H19.1668C19.4099 6.33337 19.6431 6.42995 19.815 6.60186C19.9869 6.77377 20.0835 7.00693 20.0835 7.25004ZM6.50766 2.66671C5.71016 2.66671 5.0685 2.85004 4.5735 3.20754C4.09683 3.58337 3.8585 4.10587 3.86766 4.83004L3.87683 4.85754H5.646C5.65516 4.58254 5.73766 4.37171 5.90266 4.22504C6.07241 4.08428 6.2872 4.00943 6.50766 4.01421C6.79183 4.01421 7.03016 4.10587 7.19516 4.27087C7.36016 4.44504 7.4335 4.68337 7.4335 4.95837C7.4335 5.25171 7.36933 5.49921 7.22266 5.71004C7.09433 5.92087 6.90183 6.10421 6.6635 6.25087C6.196 6.56254 5.87516 6.83754 5.701 7.08504C5.51766 7.32337 5.41683 7.70837 5.41683 8.16671H7.25016C7.25016 7.88254 7.28683 7.65337 7.36933 7.48837C7.45183 7.32337 7.60766 7.15837 7.83683 7.01171C8.24933 6.79171 8.5885 6.52587 8.85433 6.15921C9.12016 5.79254 9.25766 5.41671 9.25766 4.95837C9.25766 4.26171 9.01016 3.70254 8.51516 3.29004C8.02933 2.87754 7.36016 2.66671 6.50766 2.66671ZM5.41683 9.08337V10.9167H7.25016V9.08337H5.41683ZM10.9168 10.9167H12.7502V9.08337H10.9168V10.9167ZM10.9168 2.66671V8.16671H12.7502V2.66671H10.9168Z" fill="white"/>
</svg>
