<svg width="22" height="22" viewBox="0 0 22 22" fill="none" xmlns="http://www.w3.org/2000/svg">
<path d="M11.0003 0C7.40308 0 4.45508 2.9392 4.45508 6.52652C4.45508 7.91648 4.89904 9.20832 5.65034 10.27L10.2015 18.1379C10.8388 18.9706 11.2625 18.8124 11.7925 18.0939L16.8125 9.5513C16.9137 9.36782 16.9933 9.17246 17.0626 8.97292C17.3812 8.19665 17.545 7.36561 17.5449 6.52652C17.5451 2.9392 14.598 0 11.0003 0ZM11.0003 3.058C12.9376 3.058 14.4781 4.59492 14.4781 6.52652C14.4781 8.45812 12.9376 9.99438 11.0003 9.99438C9.0632 9.99438 7.5221 8.45834 7.5221 6.52652C7.5221 4.59492 9.0632 3.05822 11.0003 3.05822V3.058Z" fill="white"/>
<path d="M15.161 10.7598L15.1504 10.7875C15.1537 10.7791 15.1563 10.7705 15.1596 10.7622L15.161 10.7598Z" fill="white"/>
<path d="M7.48152 15.1925C4.3738 15.6317 2.2002 16.6822 2.2002 18.2285C2.2002 20.3115 5.83196 22 11.0002 22C16.1684 22 19.8002 20.3115 19.8002 18.2285C19.8002 16.6822 17.6268 15.6317 14.5193 15.1925L14.0888 15.9256C16.4309 16.2505 18.0402 16.9334 18.0402 17.7258C18.0402 18.8368 14.8883 19.7373 11.0002 19.7373C7.11214 19.7373 3.9602 18.8368 3.9602 17.7258C3.95998 16.936 5.55872 16.2538 7.9081 15.9276C7.7662 15.6825 7.62364 15.4378 7.48152 15.1925Z" fill="white"/>
</svg>
