<svg width="13" height="17" viewBox="0 0 13 17" fill="none" xmlns="http://www.w3.org/2000/svg">
<path d="M6.14309 2.06484C7.81928 2.06484 9.19071 3.44402 9.19071 5.12969C9.19071 6.73874 7.59071 9.34386 6.14309 11.1828C4.69547 9.26724 3.09547 6.73874 3.09547 5.12969C3.09547 3.44402 4.4669 2.06484 6.14309 2.06484ZM6.14309 0.53241C3.6288 0.53241 1.57166 2.60119 1.57166 5.12969C1.57166 8.57765 6.14309 13.558 6.14309 13.558C6.14309 13.558 10.7145 8.50103 10.7145 5.12969C10.7145 2.60119 8.65738 0.53241 6.14309 0.53241ZM6.14309 3.59726C5.30499 3.59726 4.61928 4.28685 4.61928 5.12969C4.61928 5.97252 5.30499 6.66212 6.14309 6.66212C6.98118 6.66212 7.6669 5.97252 7.6669 5.12969C7.6669 4.28685 6.98118 3.59726 6.14309 3.59726ZM12.2383 13.558C12.2383 15.2437 9.49547 16.6229 6.14309 16.6229C2.79071 16.6229 0.0478516 15.2437 0.0478516 13.558C0.0478516 12.562 0.962137 11.7191 2.40976 11.1062L2.8669 11.7957C2.10499 12.1789 1.57166 12.6386 1.57166 13.1749C1.57166 14.2476 3.6288 15.0905 6.14309 15.0905C8.65738 15.0905 10.7145 14.2476 10.7145 13.1749C10.7145 12.6386 10.1812 12.1789 9.34309 11.7957L9.80023 11.1062C11.324 11.7191 12.2383 12.562 12.2383 13.558Z" fill="#004990"/>
</svg>
