<svg width="20" height="20" viewBox="0 0 20 20" fill="none" xmlns="http://www.w3.org/2000/svg">
<g clip-path="url(#clip0_31_144)">
<path d="M9.07232 2.80556C10.2757 2.80446 11.4524 3.16031 12.4536 3.82809C13.4547 4.49586 14.2353 5.44556 14.6965 6.55705C15.1578 7.66854 15.2791 8.89187 15.045 10.0723C14.8109 11.2527 14.232 12.3372 13.3814 13.1885C12.5309 14.0398 11.4469 14.6198 10.2667 14.8549C9.08652 15.0901 7.86308 14.97 6.75117 14.5097C5.63927 14.0494 4.68885 13.2697 4.02016 12.2692C3.35147 11.2687 2.99455 10.0923 2.99455 8.88889C3.00184 7.2787 3.64434 5.73646 4.78241 4.59735C5.92048 3.45824 7.46214 2.81433 9.07232 2.80556ZM9.07232 1.66667C7.6439 1.66667 6.24756 2.09025 5.05987 2.88384C3.87218 3.67742 2.94649 4.80538 2.39986 6.12507C1.85323 7.44476 1.7102 8.89691 1.98887 10.2979C2.26754 11.6989 2.95539 12.9857 3.96544 13.9958C4.97549 15.0058 6.26236 15.6937 7.66334 15.9723C9.06431 16.251 10.5165 16.108 11.8361 15.5614C13.1558 15.0147 14.2838 14.089 15.0774 12.9013C15.871 11.7137 16.2945 10.3173 16.2945 8.88889C16.2945 6.97344 15.5336 5.13644 14.1792 3.78201C12.8248 2.42758 10.9878 1.66667 9.07232 1.66667Z" fill="#141414"/>
<path d="M19.4449 18.4944L15.3504 14.3722L14.5615 15.1555L18.656 19.2777C18.7074 19.3295 18.7685 19.3707 18.8359 19.3989C18.9032 19.4271 18.9755 19.4417 19.0484 19.4419C19.1214 19.4422 19.1938 19.4281 19.2613 19.4004C19.3289 19.3727 19.3903 19.332 19.4421 19.2805C19.4939 19.2291 19.535 19.168 19.5632 19.1006C19.5914 19.0333 19.606 18.961 19.6063 18.888C19.6065 18.815 19.5924 18.7427 19.5647 18.6752C19.537 18.6076 19.4963 18.5462 19.4449 18.4944Z" fill="#141414"/>
</g>
<defs>
<clipPath id="clip0_31_144">
<rect width="20" height="20" rx="4" fill="white"/>
</clipPath>
</defs>
</svg>
